<?xml version="1.0" standalone="no"?>
<!DOCTYPE svg PUBLIC "-//W3C//DTD SVG 20010904//EN"
 "http://www.w3.org/TR/2001/REC-SVG-20010904/DTD/svg10.dtd">
<svg version="1.0" xmlns="http://www.w3.org/2000/svg"
 width="700.000000pt" height="700.000000pt" viewBox="0 0 700.000000 700.000000"
 preserveAspectRatio="xMidYMid meet">
<metadata>
Created by potrace 1.11, written by Peter Selinger 2001-2013
</metadata>
<g transform="translate(0.000000,700.000000) scale(0.100000,-0.100000)"
fill="#000000" stroke="none">
<path d="M0 3500 l0 -3500 3500 0 3500 0 0 3500 0 3500 -3500 0 -3500 0 0
-3500z m4165 2356 c38 -18 117 -91 325 -300 236 -237 273 -278 260 -289 -8 -7
-92 -89 -187 -181 l-172 -168 -222 226 -221 226 -417 0 -416 0 -442 -442 -443
-443 0 -966 0 -967 439 -431 439 -431 596 0 596 0 0 521 0 522 -515 -8 -515
-7 2 268 3 269 1043 3 1042 2 0 -258 0 -259 -152 -6 c-83 -4 -204 -7 -270 -7
l-118 0 -1 -457 c0 -252 -4 -564 -7 -695 l-7 -236 -40 -58 c-29 -41 -54 -65
-90 -84 l-49 -25 -851 0 -850 0 -41 22 c-23 12 -271 251 -592 570 -536 532
-552 550 -567 602 -13 48 -15 196 -15 1151 0 973 2 1102 16 1150 15 51 41 79
567 609 303 306 563 563 577 572 15 10 36 19 46 22 10 2 285 5 609 6 l590 1
50 -24z"/>
</g>
</svg>
